<?xml version="1.0" encoding="utf-8"?>
<!-- Generator: Adobe Illustrator 21.0.0, SVG Export Plug-In . SVG Version: 6.00 Build 0)  -->
<svg version="1.1" id="Capa_1" xmlns="http://www.w3.org/2000/svg" xmlns:xlink="http://www.w3.org/1999/xlink" x="0px" y="0px"
	 viewBox="0 0 34 34" style="enable-background:new 0 0 34 34;" xml:space="preserve">
<g>
	<path d="M32.8,17.5H1.2c-0.3,0-0.5-0.2-0.5-0.5s0.2-0.5,0.5-0.5h31.6c0.3,0,0.5,0.2,0.5,0.5S33.1,17.5,32.8,17.5z"/>
	<path d="M13.7,30c-0.1,0-0.3,0-0.4-0.1L0.8,17.4c-0.1-0.1-0.1-0.2-0.1-0.4s0.1-0.3,0.1-0.4L13.4,4.1c0.2-0.2,0.5-0.2,0.7,0
		c0.2,0.2,0.2,0.5,0,0.7L1.9,17l12.2,12.2c0.2,0.2,0.2,0.5,0,0.7C14,30,13.8,30,13.7,30z"/>
</g>
</svg>
