<?xml version="1.0" encoding="utf-8"?>
<!-- Generator: Adobe Illustrator 21.0.0, SVG Export Plug-In . SVG Version: 6.00 Build 0)  -->
<svg version="1.1" id="Capa_1" xmlns="http://www.w3.org/2000/svg" xmlns:xlink="http://www.w3.org/1999/xlink" x="0px" y="0px"
	 viewBox="0 0 512 512" style="enable-background:new 0 0 512 512;" xml:space="preserve">
<g>
	<g>
		<path d="M379.4,124.6C348.7,88.1,303.5,66.9,255.8,67c-89,0.2-161,72.6-160.7,161.6c0.2,89,72.6,161,161.6,160.7
			c9.1,0,18.3-0.8,27.3-2.4l62,56c3.3,3,8.3,2.7,11.3-0.6c1.3-1.5,2.1-3.4,2.1-5.3v-85.4C427.5,294.5,436.5,192.9,379.4,124.6z
			 M346.3,341.5c-1.9,1.5-3,3.8-3,6.2V419l-51.5-46.6c-1.5-1.3-3.4-2.1-5.4-2.1h-1.6c-78.6,16-155.3-34.7-171.3-113.2
			s34.7-155.3,113.2-171.3c78.6-16,155.3,34.7,171.3,113.2c2,9.6,2.9,19.4,2.9,29.2C401,272.3,380.9,314.1,346.3,341.5z"/>
	</g>
</g>
<g>
	<g>
		<path d="M322,179.8c-8.1-8.2-19-13-30.5-13.3c-13.7,0.8-26.5,6.9-35.8,17c-9.3-10.1-22.1-16.2-35.8-17
			c-11.5,0.3-22.5,5.1-30.6,13.3c-10.6,9.8-15.6,24.3-13,38.6c5.4,37.6,47.4,77,75.8,91.3c2.3,1.1,4.9,1.1,7.2,0
			c28.4-14.3,70.4-53.7,75.7-91.3C337.6,204.2,332.7,189.6,322,179.8z M319.2,216c-3.8,26.8-35.8,61.8-63.4,77.4
			c-27.7-15.5-59.7-50.6-63.4-77.4c-1.8-9,1.2-18.4,8-24.6c5.2-5.4,12.2-8.7,19.7-9c16,0,29.1,17.6,29.2,17.8
			c2.6,3.6,7.6,4.4,11.2,1.9c0.7-0.5,1.4-1.2,1.9-1.9c0,0,13.1-17.8,29.2-17.8c7.5,0.4,14.5,3.6,19.7,9
			C318,197.6,321,206.9,319.2,216z"/>
	</g>
</g>
</svg>
