<?xml version="1.0" encoding="utf-8"?>
<!-- Generator: Adobe Illustrator 23.0.6, SVG Export Plug-In . SVG Version: 6.00 Build 0)  -->
<svg version="1.1" id="Layer_1" xmlns="http://www.w3.org/2000/svg" xmlns:xlink="http://www.w3.org/1999/xlink" x="0px" y="0px"
	 viewBox="0 0 100.4 100.4" style="enable-background:new 0 0 100.4 100.4;" xml:space="preserve">
<g>
	<path d="M83.9,18.3h-9.3v-2.1c0-3-2.4-5.4-5.4-5.4s-5.4,2.4-5.4,5.4v2.1h-8.5v-2.1c0-3-2.4-5.4-5.4-5.4c-3,0-5.4,2.4-5.4,5.4v2.1
		h-8.6v-2.1c0-3-2.4-5.4-5.4-5.4s-5.4,2.4-5.4,5.4v2.1h-9.3c-0.8,0-1.5,0.7-1.5,1.5v67.9c0,0.8,0.7,1.5,1.5,1.5h67.9
		c0.8,0,1.5-0.7,1.5-1.5V19.8C85.4,19,84.8,18.3,83.9,18.3z M69.3,13.8c1.3,0,2.4,1.1,2.4,2.4v3.6c0,0,0,0,0,0s0,0,0,0v3.6
		c0,1.3-1.1,2.4-2.4,2.4s-2.4-1.1-2.4-2.4v-3.6c0,0,0,0,0,0s0,0,0,0v-3.6C66.9,14.9,68,13.8,69.3,13.8z M47.7,16.2
		c0-1.3,1.1-2.4,2.4-2.4c1.3,0,2.4,1.1,2.4,2.4v7.2c0,1.3-1.1,2.4-2.4,2.4c-1.3,0-2.4-1.1-2.4-2.4V16.2z M28.3,16.2
		c0-1.3,1.1-2.4,2.4-2.4s2.4,1.1,2.4,2.4v7.2c0,1.3-1.1,2.4-2.4,2.4s-2.4-1.1-2.4-2.4V16.2z M82.4,86.2H17.6V21.3h7.8v2.1
		c0,3,2.4,5.4,5.4,5.4c3,0,5.4-2.4,5.4-5.4v-2.1h8.6v2.1c0,3,2.4,5.4,5.4,5.4s5.4-2.4,5.4-5.4v-2.1h8.5v2.1c0,3,2.4,5.4,5.4,5.4
		s5.4-2.4,5.4-5.4v-2.1h7.8L82.4,86.2L82.4,86.2z"/>
	<path d="M59,39.6c-3.8,0-7.1,2-8.9,5c-1.8-3-5.2-5-8.9-5c-5.8,0-10.4,4.7-10.4,10.4c0,2.2,0.7,4.4,2.1,6.2l16.1,20.1
		c0.3,0.4,0.7,0.6,1.2,0.6h0c0.5,0,0.9-0.2,1.2-0.6l16.4-20.6c0,0,0.1-0.1,0.1-0.1c1.1-1.7,1.7-3.6,1.7-5.6
		C69.4,44.3,64.7,39.6,59,39.6z M65.3,53.9L50,73L35.2,54.4c-1-1.3-1.5-2.8-1.5-4.4c0-4.1,3.3-7.4,7.4-7.4s7.4,3.3,7.4,7.4
		c0,0.8,0.7,1.5,1.5,1.5s1.5-0.7,1.5-1.5c0-4.1,3.3-7.4,7.4-7.4c4.1,0,7.4,3.3,7.4,7.4C66.4,51.4,66,52.7,65.3,53.9z"/>
</g>
</svg>
