<?xml version="1.0" encoding="utf-8"?>
<!-- Generator: Adobe Illustrator 23.0.6, SVG Export Plug-In . SVG Version: 6.00 Build 0)  -->
<svg version="1.1" id="Layer_1" xmlns="http://www.w3.org/2000/svg" xmlns:xlink="http://www.w3.org/1999/xlink" x="0px" y="0px"
	 viewBox="0 0 72 72" style="enable-background:new 0 0 72 72;" xml:space="preserve">
<g>
	<path d="M67.1,7.1h-8.5V5.2c0-2.7-2.2-4.9-4.9-4.9c-2.7,0-4.9,2.2-4.9,4.9v1.9h-7.8V5.2c0-2.7-2.2-4.9-4.9-4.9
		c-2.7,0-4.9,2.2-4.9,4.9v1.9h-7.9V5.2c0-2.7-2.2-4.9-4.9-4.9s-4.9,2.2-4.9,4.9v1.9H4.8C4,7.1,3.4,7.8,3.4,8.5v62.2
		C3.4,71.4,4,72,4.8,72h62.2c0.7,0,1.4-0.6,1.4-1.4V8.5C68.5,7.8,67.9,7.1,67.1,7.1z M53.7,3c1.2,0,2.2,1,2.2,2.2v3.3l0,0l0,0v3.3
		c0,1.2-1,2.2-2.2,2.2s-2.2-1-2.2-2.2V8.5l0,0l0,0V5.2C51.5,4,52.6,3,53.7,3z M34,5.2C34,4,35,3,36.2,3c1.2,0,2.2,1,2.2,2.2v6.6
		c0,1.2-1,2.2-2.2,2.2C35,14,34,13,34,11.8V5.2z M16.2,5.2c0-1.2,1-2.2,2.2-2.2s2.2,1,2.2,2.2v6.6c0,1.2-1,2.2-2.2,2.2
		s-2.2-1-2.2-2.2V5.2z M65.7,69.3H6.4V9.9h7.1v1.9c0,2.7,2.2,4.9,4.9,4.9c2.7,0,4.9-2.2,4.9-4.9V9.9h7.9v1.9c0,2.7,2.2,4.9,4.9,4.9
		c2.7,0,4.9-2.2,4.9-4.9V9.9H49v1.9c0,2.7,2.2,4.9,4.9,4.9c2.7,0,4.9-2.2,4.9-4.9V9.9H66L65.7,69.3L65.7,69.3z"/>
	<path d="M44.3,26.6c-3.5,0-6.5,1.8-8.1,4.6c-1.6-2.7-4.8-4.6-8.1-4.6c-5.3,0-9.5,4.3-9.5,9.5c0,2,0.6,4,1.9,5.7l14.7,18.4
		c0.3,0.4,0.6,0.5,1.1,0.5l0,0c0.5,0,0.8-0.2,1.1-0.5l15-18.9l0.1-0.1c1-1.6,1.6-3.3,1.6-5.1C53.8,30.9,49.5,26.6,44.3,26.6z
		 M50.1,39.7l-14,17.5l-13.5-17c-0.9-1.2-1.4-2.6-1.4-4c0-3.8,3-6.8,6.8-6.8s6.8,3,6.8,6.8c0,0.7,0.6,1.4,1.4,1.4s1.4-0.6,1.4-1.4
		c0-3.8,3-6.8,6.8-6.8c3.8,0,6.8,3,6.8,6.8C51.1,37.4,50.7,38.6,50.1,39.7z"/>
</g>
</svg>
