<?xml version="1.0" encoding="utf-8"?>
<!-- Generator: Adobe Illustrator 23.0.6, SVG Export Plug-In . SVG Version: 6.00 Build 0)  -->
<svg version="1.1" id="Layer_1" xmlns="http://www.w3.org/2000/svg" xmlns:xlink="http://www.w3.org/1999/xlink" x="0px" y="0px"
	 viewBox="0 0 100.3 100.3" style="enable-background:new 0 0 100.3 100.3;" xml:space="preserve">
<g>
	<path d="M91.7,55.3h-5.2V48c0-0.1,0-0.2,0-0.3c0-0.1,0-0.1,0-0.2c0-4.1-8.3-6-16-6c-5.4,0-11.1,0.9-14,2.9V40c0-0.1,0-0.3-0.1-0.4
		c0-0.2,0.1-0.4,0.1-0.6c0-4.9-10.3-7.5-20.5-7.5S15.5,34.1,15.5,39c0,0.2,0,0.4,0.1,0.6c0,0.1-0.1,0.3-0.1,0.4v10.3H9.2
		c-2.9,0-5.2,2.3-5.2,5.2v13.6c0,2.9,2.3,5.2,5.2,5.2h6.3v8.2c0,5.1,10.3,7.8,20.5,7.8c7.8,0,15.6-1.6,18.9-4.6
		c2.8,2.7,9.4,4.1,15.6,4.1c8,0,16-2.3,16-6.6v-8.9h5.2c2.4,0,4.3-1.9,4.3-4.3V59.6C96,57.2,94.1,55.3,91.7,55.3z M70.5,44.5
		c8.5,0,12.8,2.2,13,3c-0.2,0.8-4.5,3-13,3s-12.8-2.2-13-3C57.7,46.7,62,44.5,70.5,44.5z M53.5,75c-2.6-2.5-6.6-6.4-8.3-8.1
		C44.4,66,44,64.9,44,63.7c0-1.2,0.5-2.4,1.4-3.3c0.9-0.9,2.2-1.4,3.5-1.4c0,0,0,0,0,0c2.1,0,4,1.4,4.7,3.4
		C53.5,62.4,53.5,75,53.5,75z M56.5,62.4c0.6-2,2.5-3.4,4.6-3.4c0,0,0,0,0,0c2.7,0,4.9,2.1,4.9,4.7c0,1.2-0.4,2.3-1.2,3.1
		c-1.7,1.7-5.6,5.6-8.3,8.1V62.4z M36,34.5c11.3,0,17.5,3,17.5,4.5s-6.2,4.5-17.5,4.5s-17.5-3-17.5-4.5S24.7,34.5,36,34.5z
		 M9.2,71.3c-1.2,0-2.2-1-2.2-2.2V55.4c0-1.2,1-2.2,2.2-2.2h6.3v18H9.2z M36,87.3c-11.3,0-17.5-3.2-17.5-4.8V43.1
		c3.8,2.2,10.7,3.4,17.5,3.4s13.7-1.2,17.5-3.4v14.4c-1.3-1-2.9-1.5-4.6-1.5c0,0,0,0,0,0c-2.1,0-4.1,0.8-5.6,2.3
		c-1.5,1.5-2.3,3.4-2.2,5.4c0,2,0.7,3.8,2,5.2c2.3,2.4,8.6,8.5,10.5,10.2v3.3C53.5,84.1,47.3,87.3,36,87.3z M70.5,86.8
		c-8.4,0-13.6-2.6-14-3.9c0-0.1,0-0.2,0-0.4v-3.3c1.8-1.7,8.1-7.8,10.4-10.2c1.3-1.4,2.1-3.2,2.1-5.2c0-4.3-3.5-7.7-7.9-7.7
		c0,0,0,0,0,0c-1.7,0-3.3,0.6-4.6,1.5v-6.9c2.9,2,8.6,2.9,14,2.9c4.8,0,9.9-0.7,13-2.3v31.9C83.5,84.2,79.1,86.8,70.5,86.8z
		 M93,69.9c0,0.7-0.6,1.3-1.3,1.3h-5.2v-13h5.2c0.7,0,1.3,0.6,1.3,1.3V69.9z"/>
	<path d="M67.6,21.1l3,1.9c0.4,0.3,0.7,0.7,0.7,1.2c0,0.5-0.2,1-0.6,1.3l-2.2,1.8c-1,0.8-1.6,2-1.7,3.3c-0.1,1.3,0.4,2.6,1.3,3.5
		l3.9,4.1c0.3,0.3,0.7,0.5,1.1,0.5c0.4,0,0.8-0.1,1-0.4c0.6-0.6,0.6-1.5,0-2.1l-3.9-4.1c-0.3-0.3-0.5-0.7-0.4-1.2
		c0-0.4,0.2-0.8,0.6-1.1l2.2-1.8c1.1-0.9,1.8-2.3,1.7-3.8c-0.1-1.5-0.8-2.8-2-3.6l-3-1.9c-0.4-0.3-0.7-0.7-0.7-1.2
		c0-0.5,0.2-1,0.6-1.3l4.9-3.9c0.6-0.5,0.8-1.5,0.2-2.1c-0.5-0.6-1.5-0.8-2.1-0.2l-4.9,3.9c-1.1,0.9-1.8,2.3-1.7,3.8
		C65.6,18.9,66.3,20.3,67.6,21.1z"/>
	<path d="M38.5,15c0.8,1,0.7,2.7-0.2,3.5L36,20.6c-1.9,1.7-2.2,5-0.8,7.2c0.3,0.4,0.8,0.7,1.3,0.7c0.3,0,0.6-0.1,0.8-0.2
		c0.7-0.5,0.9-1.4,0.4-2.1c-0.7-1-0.5-2.6,0.3-3.3l2.3-2.2c2-1.9,2.2-5.4,0.4-7.6l-4.1-5c-0.5-0.6-1.5-0.7-2.1-0.2s-0.7,1.5-0.2,2.1
		L38.5,15z"/>
</g>
</svg>
