<?xml version="1.0" encoding="utf-8"?>
<!-- Generator: Adobe Illustrator 23.0.6, SVG Export Plug-In . SVG Version: 6.00 Build 0)  -->
<svg version="1.1" id="Layer_1" xmlns="http://www.w3.org/2000/svg" xmlns:xlink="http://www.w3.org/1999/xlink" x="0px" y="0px"
	 viewBox="0 0 72 72" style="enable-background:new 0 0 72 72;" xml:space="preserve">
<g>
	<path d="M68.7,40h-4.1v-5.7c0-0.1,0-0.2,0-0.2s0-0.1,0-0.2c0-3.2-6.5-4.7-12.5-4.7c-4.2,0-8.6,0.7-10.9,2.3v-3.4
		c0-0.1,0-0.2-0.1-0.3c0-0.2,0.1-0.3,0.1-0.5c0-3.8-8-5.8-16-5.8s-16,2-16,5.8c0,0.2,0,0.3,0.1,0.5c0,0.1-0.1,0.2-0.1,0.3v8H4.4
		c-2.3,0-4.1,1.8-4.1,4.1v10.6c0,2.3,1.8,4.1,4.1,4.1h4.9v6.4c0,4,8,6.1,16,6.1c6.1,0,12.2-1.2,14.7-3.6c2.2,2.1,7.3,3.2,12.2,3.2
		c6.2,0,12.5-1.8,12.5-5.1v-6.9h4.1c1.9,0,3.3-1.5,3.3-3.3v-8.1C72,41.5,70.5,40,68.7,40z M52.1,31.6c6.6,0,10,1.7,10.1,2.3
		c-0.2,0.6-3.5,2.3-10.1,2.3S42.2,34.6,42,34C42.2,33.3,45.5,31.6,52.1,31.6z M38.9,55.4c-2-1.9-5.1-5-6.5-6.3
		c-0.6-0.7-0.9-1.6-0.9-2.5s0.4-1.9,1.1-2.6c0.7-0.7,1.7-1.1,2.7-1.1l0,0c1.6,0,3.1,1.1,3.7,2.6C38.9,45.6,38.9,55.4,38.9,55.4z
		 M41.2,45.6c0.5-1.6,1.9-2.6,3.6-2.6l0,0c2.1,0,3.8,1.6,3.8,3.7c0,0.9-0.3,1.8-0.9,2.4c-1.3,1.3-4.4,4.4-6.5,6.3
		C41.2,55.3,41.2,45.6,41.2,45.6z M25.3,23.8c8.8,0,13.6,2.3,13.6,3.5s-4.8,3.5-13.6,3.5s-13.6-2.3-13.6-3.5S16.5,23.8,25.3,23.8z
		 M4.4,52.5c-0.9,0-1.7-0.8-1.7-1.7V40.1c0-0.9,0.8-1.7,1.7-1.7h4.9v14L4.4,52.5L4.4,52.5z M25.3,65c-8.8,0-13.6-2.5-13.6-3.7V30.5
		c3,1.7,8.3,2.6,13.6,2.6s10.7-0.9,13.6-2.6v11.2c-1-0.8-2.3-1.2-3.6-1.2l0,0c-1.6,0-3.2,0.6-4.4,1.8c-1.2,1.2-1.8,2.6-1.7,4.2
		c0,1.6,0.5,3,1.6,4.1c1.8,1.9,6.7,6.6,8.2,7.9v2.6C38.9,62.5,34.1,65,25.3,65z M52.1,64.6c-6.5,0-10.6-2-10.9-3c0-0.1,0-0.2,0-0.3
		v-2.6c1.4-1.3,6.3-6.1,8.1-7.9c1-1.1,1.6-2.5,1.6-4.1c0-3.3-2.7-6-6.2-6l0,0c-1.3,0-2.6,0.5-3.6,1.2v-5.4c2.3,1.6,6.7,2.3,10.9,2.3
		c3.7,0,7.7-0.5,10.1-1.8v24.9C62.3,62.5,58.8,64.6,52.1,64.6z M69.7,51.4c0,0.5-0.5,1-1,1h-4.1V42.3h4.1c0.5,0,1,0.5,1,1V51.4z"/>
	<path d="M49.9,13.4l2.3,1.5c0.3,0.2,0.5,0.5,0.5,0.9c0,0.4-0.2,0.8-0.5,1l-1.7,1.4c-0.8,0.6-1.2,1.6-1.3,2.6s0.3,2,1,2.7l3,3.2
		c0.2,0.2,0.5,0.4,0.9,0.4c0.3,0,0.6-0.1,0.8-0.3c0.5-0.5,0.5-1.2,0-1.6l-3-3.2c-0.2-0.2-0.4-0.5-0.3-0.9c0-0.3,0.2-0.6,0.5-0.9
		l1.7-1.4c0.9-0.7,1.4-1.8,1.3-3c-0.1-1.2-0.6-2.2-1.6-2.8l-2.3-1.5c-0.3-0.2-0.5-0.5-0.5-0.9s0.2-0.8,0.5-1l3.8-3
		c0.5-0.4,0.6-1.2,0.2-1.6c-0.4-0.5-1.2-0.6-1.6-0.2l-3.8,3c-0.9,0.7-1.4,1.8-1.3,3C48.3,11.7,48.9,12.8,49.9,13.4z"/>
	<path d="M27.2,8.6c0.6,0.8,0.5,2.1-0.2,2.7L25.3,13c-1.5,1.3-1.7,3.9-0.6,5.6c0.2,0.3,0.6,0.5,1,0.5c0.2,0,0.5-0.1,0.6-0.2
		c0.5-0.4,0.7-1.1,0.3-1.6c-0.5-0.8-0.4-2,0.2-2.6l1.8-1.7c1.6-1.5,1.7-4.2,0.3-5.9l-3.2-3.9c-0.4-0.5-1.2-0.5-1.6-0.2
		s-0.5,1.2-0.2,1.6L27.2,8.6z"/>
</g>
</svg>
