<?xml version="1.0" encoding="utf-8"?>
<!-- Generator: Adobe Illustrator 23.0.6, SVG Export Plug-In . SVG Version: 6.00 Build 0)  -->
<svg version="1.1" id="Layer_1" xmlns="http://www.w3.org/2000/svg" xmlns:xlink="http://www.w3.org/1999/xlink" x="0px" y="0px"
	 viewBox="0 0 72 72" style="enable-background:new 0 0 72 72;" xml:space="preserve">
<path d="M72,37.2c0-0.4-0.1-0.7-0.4-1c-2.8-2.7-6.2-4.7-9.8-5.9c2-5.6,0.4-12-3.9-16.2c-4.3-4.3-10.6-5.9-16.2-3.9
	c-1.2-3.5-3.2-6.9-5.9-9.8C35.5,0.1,35.1,0,34.8,0c-0.4,0-0.7,0.1-1,0.4c-10.1,10.1-10.5,26.4-0.9,36.9L19,51.2
	c1.7-5.9,0.3-12.8-4.1-17.5l0,0l0,0c0,0-0.1,0-0.1-0.1c-0.1-0.1-0.2-0.2-0.4-0.2c-0.1,0-0.2,0-0.2-0.1c-0.1,0-0.2-0.1-0.3-0.1
	c-0.1,0-0.2,0-0.4,0.1c-0.1,0-0.1,0-0.2,0c-0.1,0.1-0.3,0.1-0.4,0.2c0,0-0.1,0-0.1,0.1l0,0l0,0C9.7,37,7.8,41.5,7.8,46.3
	c0,4.3,1.5,8.4,4.3,11.7L0.6,69.5c-0.5,0.5-0.5,1.3,0,1.9c0.3,0.3,0.6,0.4,1,0.4s0.7-0.1,1-0.4l11.5-11.5c3.3,2.8,7.4,4.3,11.7,4.3
	c4.8,0,9.3-1.9,12.7-5.2l0,0l0,0c0,0,0-0.1,0.1-0.1c0.1-0.1,0.2-0.2,0.2-0.4c0-0.1,0-0.2,0-0.2c0-0.1,0.1-0.2,0-0.3
	c0-0.1,0-0.2-0.1-0.3c0-0.1,0-0.1-0.1-0.2s-0.2-0.3-0.2-0.4c0,0,0-0.1-0.1-0.1l0,0l0,0c-4.7-4.3-11.4-5.8-17.5-4.1l13.8-13.8
	c5.1,4.6,11.5,6.9,18,6.9c6.8,0,13.7-2.6,19-7.8C71.9,38,72,37.6,72,37.2z M56,16c3.6,3.6,4.9,9,3.3,13.7
	c-6.6-1.6-13.6-0.7-19.5,2.7c3.3-5.9,4.2-13,2.7-19.5C47.1,11,52.4,12.3,56,16z M34.7,3.3c7.8,9,7.7,22.9-0.3,31.9
	C26.5,26,26.6,12.3,34.7,3.3z M13.9,36.6c4.3,5.6,4.2,13.7-0.2,19.2c-2.1-2.7-3.3-6-3.3-9.5C10.4,42.7,11.6,39.4,13.9,36.6z
	 M35.4,58.1c-2.7,2.3-6.1,3.5-9.8,3.5c-3.5,0-6.8-1.2-9.5-3.3C21.7,53.9,29.8,53.9,35.4,58.1z M36.9,37.5c9-8,22.8-8.1,31.9-0.3
	C59.7,45.4,46,45.5,36.9,37.5z"/>
</svg>
