<?xml version="1.0" encoding="utf-8"?>
<!-- Generator: Adobe Illustrator 23.0.6, SVG Export Plug-In . SVG Version: 6.00 Build 0)  -->
<svg version="1.1" id="Layer_1" xmlns="http://www.w3.org/2000/svg" xmlns:xlink="http://www.w3.org/1999/xlink" x="0px" y="0px"
	 viewBox="0 0 100.3 100.3" style="enable-background:new 0 0 100.3 100.3;" xml:space="preserve">
<path d="M93,49c0-0.4-0.1-0.8-0.4-1.1c-3.2-3.1-7-5.3-11-6.7c2.2-6.3,0.4-13.5-4.4-18.3c-4.9-4.9-12-6.6-18.3-4.4
	c-1.4-4-3.6-7.8-6.7-11C51.8,7.1,51.4,7,51,7c-0.4,0-0.8,0.1-1.1,0.4c-11.4,11.4-11.8,29.8-1,41.6L33.2,64.7
	c1.9-6.7,0.3-14.4-4.6-19.7c0,0,0,0,0,0c0,0,0,0,0,0c0,0-0.1,0-0.1-0.1c-0.1-0.1-0.2-0.2-0.4-0.2c-0.1,0-0.2,0-0.2-0.1
	c-0.1,0-0.2-0.1-0.3-0.1c-0.1,0-0.2,0-0.4,0.1c-0.1,0-0.1,0-0.2,0c-0.1,0.1-0.3,0.1-0.4,0.2c0,0-0.1,0-0.1,0.1c0,0,0,0,0,0
	c0,0,0,0,0,0c-3.8,3.8-5.9,8.9-5.9,14.3c0,4.9,1.7,9.5,4.9,13.2l-13,13c-0.6,0.6-0.6,1.5,0,2.1c0.3,0.3,0.7,0.4,1.1,0.4
	s0.8-0.1,1.1-0.4l13-13c3.7,3.2,8.3,4.9,13.2,4.9c5.4,0,10.5-2.1,14.3-5.9c0,0,0,0,0,0c0,0,0,0,0,0c0,0,0-0.1,0.1-0.1
	c0.1-0.1,0.2-0.2,0.2-0.4c0-0.1,0-0.2,0-0.2c0-0.1,0.1-0.2,0-0.3c0-0.1,0-0.2-0.1-0.3c0-0.1,0-0.1-0.1-0.2c-0.1-0.1-0.2-0.3-0.2-0.4
	c0,0,0-0.1-0.1-0.1c0,0,0,0,0,0c0,0,0,0,0,0c-5.3-4.9-12.9-6.5-19.7-4.6l15.6-15.6c5.7,5.2,13,7.8,20.3,7.8c7.7,0,15.5-2.9,21.4-8.8
	C92.9,49.8,93,49.4,93,49z M75,25c4.1,4.1,5.5,10.1,3.7,15.4c-7.4-1.8-15.3-0.8-22,3c3.7-6.7,4.7-14.7,3-22
	C64.9,19.4,70.9,20.9,75,25z M50.9,10.7c8.8,10.2,8.7,25.8-0.3,36C41.7,36.3,41.8,20.9,50.9,10.7z M27.5,48.3
	c4.8,6.3,4.7,15.5-0.2,21.7c-2.4-3-3.7-6.8-3.7-10.7C23.5,55.2,24.9,51.4,27.5,48.3z M51.7,72.5c-3.1,2.6-6.9,4-11,4
	c-3.9,0-7.7-1.3-10.7-3.7C36.3,67.8,45.4,67.8,51.7,72.5z M53.4,49.3c10.1-9,25.7-9.1,36-0.3C79.1,58.2,63.7,58.3,53.4,49.3z"/>
</svg>
