<?xml version="1.0" encoding="utf-8"?>
<!-- Generator: Adobe Illustrator 23.0.6, SVG Export Plug-In . SVG Version: 6.00 Build 0)  -->
<svg version="1.1" id="Layer_1" xmlns="http://www.w3.org/2000/svg" xmlns:xlink="http://www.w3.org/1999/xlink" x="0px" y="0px"
	 viewBox="0 0 100.3 100.3" style="enable-background:new 0 0 100.3 100.3;" xml:space="preserve">
<g>
	<path d="M66.7,8C59.5,8,53.1,12,50,18c-3.2-6-9.6-9.9-16.7-9.9c-10.4,0-18.8,8.2-18.8,18.4c0,4.7,1.7,9.1,4.8,12.3
		c6.2,6.4,24.1,23.5,28.6,27.8l-7.9,7c-0.5,0.4-0.6,1.1-0.4,1.7c0.2,0.6,0.8,1,1.4,1h7.6c-0.1,0.2-0.1,0.3-0.1,0.5v4.9
		c0,1.8-1.6,3.3-3.5,3.3c-3.6,0-6.5,2.8-6.5,6.3v4.6c0,0.8,0.7,1.5,1.5,1.5s1.5-0.7,1.5-1.5v-4.6c0-1.8,1.6-3.3,3.5-3.3
		c3.6,0,6.5-2.8,6.5-6.3v-4.9c0-0.2,0-0.3-0.1-0.5H59c0.6,0,1.2-0.4,1.4-1s0.1-1.2-0.4-1.7l-7.9-7c4.5-4.3,22.3-21.5,28.5-27.8
		c3.2-3.2,4.9-7.6,4.9-12.4C85.5,16.2,77.1,8,66.7,8z M44.9,73.3l5.1-4.5l5.1,4.5H44.9z M78.4,36.6C72.2,43,54.5,60.1,50,64.4
		c-4.5-4.3-22.3-21.4-28.5-27.7c-2.6-2.6-4-6.3-4-10.2c0-8.5,7.1-15.4,15.8-15.4c7.1,0,13.4,4.7,15.2,11.4c0.2,0.7,0.8,1.1,1.4,1.1
		c0,0,0,0,0,0c0.7,0,1.3-0.5,1.4-1.1C53.2,15.7,59.5,11,66.7,11c8.7,0,15.8,6.9,15.8,15.4C82.5,30.3,81.1,34,78.4,36.6z"/>
	<path d="M26.5,26.1c0-3.4,2.9-6.1,6.5-6.1c0.8,0,1.5-0.7,1.5-1.5S33.8,17,33,17c-5.2,0-9.5,4.1-9.5,9.1c0,2.5,1,4.8,2.9,6.5
		c0.3,0.3,0.7,0.4,1,0.4c0.4,0,0.8-0.2,1.1-0.5c0.6-0.6,0.5-1.6-0.1-2.1C27.2,29.3,26.5,27.7,26.5,26.1z"/>
	<path d="M34.1,36.9c-0.6-0.6-1.5-0.6-2.1,0c-0.6,0.6-0.6,1.5,0,2.1l6,6c0.3,0.3,0.7,0.4,1.1,0.4s0.8-0.1,1.1-0.4
		c0.6-0.6,0.6-1.5,0-2.1L34.1,36.9z"/>
</g>
</svg>
