<?xml version="1.0" encoding="utf-8"?>
<!-- Generator: Adobe Illustrator 23.0.6, SVG Export Plug-In . SVG Version: 6.00 Build 0)  -->
<svg version="1.1" id="Layer_1" xmlns="http://www.w3.org/2000/svg" xmlns:xlink="http://www.w3.org/1999/xlink" x="0px" y="0px"
	 viewBox="0 0 72 72" style="enable-background:new 0 0 72 72;" xml:space="preserve">
<g>
	<path d="M49.5,0c-5.8,0-11,3.2-13.4,8.1c-2.6-4.8-7.7-8-13.4-8c-8.4,0-15.1,6.6-15.1,14.8c0,3.8,1.4,7.3,3.9,9.9
		c5,5.2,19.4,18.9,23,22.4L28,52.8c-0.4,0.3-0.5,0.9-0.3,1.4c0.2,0.5,0.6,0.8,1.1,0.8H35c-0.1,0.2-0.1,0.2-0.1,0.4v3.9
		c0,1.4-1.3,2.7-2.8,2.7c-2.9,0-5.2,2.3-5.2,5.1v3.7c0,0.6,0.6,1.2,1.2,1.2s1.2-0.6,1.2-1.2v-3.7c0-1.4,1.3-2.7,2.8-2.7
		c2.9,0,5.2-2.3,5.2-5.1v-3.9c0-0.2,0-0.2-0.1-0.4h6.1c0.5,0,1-0.3,1.1-0.8c0.2-0.5,0.1-1-0.3-1.4l-6.4-5.6c3.6-3.5,18-17.3,23-22.4
		c2.6-2.6,3.9-6.1,3.9-10C64.7,6.6,57.9,0,49.5,0z M32,52.6l4.1-3.6l4.1,3.6H32z M59,23C54,28.2,39.7,42,36.1,45.4
		c-3.6-3.5-18-17.2-23-22.3C11,21,9.9,18,9.9,14.9c0-6.8,5.7-12.4,12.7-12.4c5.7,0,10.8,3.8,12.2,9.2c0.2,0.6,0.6,0.9,1.1,0.9l0,0
		c0.6,0,1-0.4,1.1-0.9c1.5-5.5,6.6-9.3,12.4-9.3c7,0,12.7,5.6,12.7,12.4C62.3,18,61.1,20.9,59,23z"/>
	<path d="M17.2,14.6c0-2.7,2.3-4.9,5.2-4.9c0.6,0,1.2-0.6,1.2-1.2S23,7.2,22.4,7.2c-4.2,0-7.7,3.3-7.7,7.3c0,2,0.8,3.9,2.3,5.2
		c0.2,0.2,0.6,0.3,0.8,0.3c0.3,0,0.6-0.2,0.9-0.4c0.5-0.5,0.4-1.3-0.1-1.7C17.7,17.2,17.2,15.9,17.2,14.6z"/>
	<path d="M23.3,23.3c-0.5-0.5-1.2-0.5-1.7,0c-0.5,0.5-0.5,1.2,0,1.7l4.8,4.8c0.2,0.2,0.6,0.3,0.9,0.3s0.6-0.1,0.9-0.3
		c0.5-0.5,0.5-1.2,0-1.7L23.3,23.3z"/>
</g>
</svg>
