<?xml version="1.0" encoding="utf-8"?>
<!-- Generator: Adobe Illustrator 23.0.6, SVG Export Plug-In . SVG Version: 6.00 Build 0)  -->
<svg version="1.1" id="Слой_1" xmlns="http://www.w3.org/2000/svg" xmlns:xlink="http://www.w3.org/1999/xlink" x="0px" y="0px"
	 viewBox="0 0 28 28" style="enable-background:new 0 0 28 28;" xml:space="preserve">
<path d="M14.1,25.7c9.8-9.8,12-10.6,13.4-13.7c0.8-2.2,0.6-4.8-0.8-6.7c-2.5-2.8-5.3-2.8-7-2.8c-3.6,0-5.6,3.6-5.6,3.6
	s-2-3.6-5.6-3.6c-1.7,0-4.5,0-7,2.8c-1.7,1.7-2,4.5-0.8,6.7C2.1,15,4.3,15.6,14.1,25.7z M3.2,6.7c2-2.2,3.9-2.2,5.3-2.2
	c2.2,0,3.6,2.5,3.6,2.5l2,3.9l2-3.9c0,0,1.4-2.5,3.6-2.5c1.7,0,3.4,0,5.3,2.2c1.1,1.1,1.1,2.8,0.6,4.5c-0.6,1.4-1.4,2-4.2,4.5
	c-1.7,1.7-4.2,3.6-7.3,7c-3.4-3.4-5.6-5.3-7.3-7c-2.8-2.5-3.6-3.4-4.2-4.5C2.1,9.5,2.1,7.8,3.2,6.7z"/>
</svg>
