<?xml version="1.0" encoding="utf-8"?>
<!-- Generator: Adobe Illustrator 23.0.6, SVG Export Plug-In . SVG Version: 6.00 Build 0)  -->
<svg version="1.1" id="Layer_1" xmlns="http://www.w3.org/2000/svg" xmlns:xlink="http://www.w3.org/1999/xlink" x="0px" y="0px"
	 viewBox="0 0 100.3 100.3" style="enable-background:new 0 0 100.3 100.3;" xml:space="preserve">
<g>
	<path d="M51.6,54.6c0.6-0.6,0.6-1.5,0-2.1s-1.5-0.6-2.1,0L34,67.9h-8.5c-0.8,0-1.5,0.7-1.5,1.5s0.7,1.5,1.5,1.5H31l-4,4h-8.5
		c-0.8,0-1.5,0.7-1.5,1.5s0.7,1.5,1.5,1.5H26v7.5c0,0.8,0.7,1.5,1.5,1.5s1.5-0.7,1.5-1.5v-8.3l4-4v5.3c0,0.8,0.7,1.5,1.5,1.5
		s1.5-0.7,1.5-1.5v-8.3L51.6,54.6z"/>
	<path d="M89.5,12.9h-9c-0.8,0-1.5,0.7-1.5,1.5s0.7,1.5,1.5,1.5H86l-7.5,7.5c-3.1-1.8-6.7-2.9-10.5-2.9c-7.7,0-14.6,4.3-18,10.7
		c-3.4-6.4-10.2-10.6-17.9-10.6C21,20.6,12,29.3,12,39.9c0,4.9,1.8,9.5,5.2,12.9c2.2,2.2,6,5.9,11.2,10.9c0.6,0.6,1.5,0.6,2.1,0
		c0.6-0.6,0.5-1.5,0-2.1c-5.2-5-8.9-8.6-11.1-10.8C16.5,47.8,15,44,15,39.9c0-9,7.7-16.3,17.1-16.3c7.7,0,14.5,5,16.5,12.1
		c0.2,0.6,0.8,1.1,1.4,1.1c0,0,0,0,0,0c0.7,0,1.3-0.5,1.4-1.1c2-7.2,8.7-12.2,16.5-12.2c9.4,0,17.1,7.3,17.1,16.3
		c0,4.2-1.6,8-4.4,10.8c-6.7,6.7-26,24.9-30.6,29.3c-1.4-1.3-4.2-3.9-7.5-7c-0.6-0.6-1.6-0.5-2.1,0.1c-0.6,0.6-0.5,1.6,0.1,2.1
		c4.9,4.6,8.5,8,8.5,8c0.3,0.3,0.7,0.4,1,0.4c0.4,0,0.7-0.1,1-0.4c0.2-0.2,24.1-22.7,31.7-30.4c3.4-3.4,5.3-8,5.3-13
		c0-5.8-2.7-11.1-7-14.6l7-7v5.3c0,0.8,0.7,1.5,1.5,1.5s1.5-0.7,1.5-1.5v-9C91,13.6,90.3,12.9,89.5,12.9z"/>
	<path d="M73.4,48.1c0.3,0.3,0.7,0.4,1,0.4c0.4,0,0.8-0.2,1.1-0.5c4.7-4.8,4.2-9.4,3.5-11.7c-1-3.3-3.9-6.2-6.7-6.8
		c-0.8-0.2-1.6,0.4-1.8,1.2c-0.2,0.8,0.4,1.6,1.2,1.8c1.6,0.3,3.7,2.2,4.5,4.7c0.6,2,0.6,5.2-2.8,8.7C72.8,46.5,72.8,47.5,73.4,48.1
		z"/>
</g>
</svg>
