<?xml version="1.0" encoding="utf-8"?>
<!-- Generator: Adobe Illustrator 23.0.6, SVG Export Plug-In . SVG Version: 6.00 Build 0)  -->
<svg version="1.1" id="Layer_1" xmlns="http://www.w3.org/2000/svg" xmlns:xlink="http://www.w3.org/1999/xlink" x="0px" y="0px"
	 viewBox="0 0 72 72" style="enable-background:new 0 0 72 72;" xml:space="preserve">
<g>
	<path d="M36.1,40.3c0.5-0.5,0.5-1.4,0-1.9c-0.5-0.5-1.4-0.5-1.9,0l-14.1,14h-7.7c-0.7,0-1.4,0.6-1.4,1.4c0,0.7,0.6,1.4,1.4,1.4h5
		l-3.6,3.6H5.9c-0.7,0-1.4,0.6-1.4,1.4s0.6,1.4,1.4,1.4h6.8v6.8c0,0.7,0.6,1.4,1.4,1.4c0.7,0,1.4-0.6,1.4-1.4v-7.6l3.6-3.6V62
		c0,0.7,0.6,1.4,1.4,1.4c0.7,0,1.4-0.6,1.4-1.4v-7.6L36.1,40.3z"/>
	<path d="M70.6,2.3h-8.2c-0.7,0-1.4,0.6-1.4,1.4S61.7,5,62.4,5h5l-6.8,6.8c-2.8-1.6-6.1-2.6-9.6-2.6c-7,0-13.3,3.9-16.4,9.8
		c-3.1-5.8-9.3-9.7-16.3-9.7C8.2,9.3,0,17.2,0,26.9c0,4.5,1.6,8.7,4.7,11.8c2,2,5.5,5.4,10.2,9.9c0.5,0.5,1.4,0.5,1.9,0
		c0.5-0.5,0.5-1.4,0-1.9c-4.7-4.6-8.1-7.8-10.1-9.8c-2.6-2.7-4-6.2-4-9.9c0-8.2,7-14.9,15.6-14.9c7,0,13.2,4.6,15,11
		c0.2,0.5,0.7,1,1.3,1l0,0c0.6,0,1.2-0.5,1.3-1c1.8-6.6,7.9-11.1,15-11.1c8.6,0,15.6,6.7,15.6,14.9c0,3.8-1.5,7.3-4,9.8
		c-6.1,6.1-23.7,22.7-27.9,26.7c-1.3-1.2-3.8-3.6-6.8-6.4c-0.5-0.5-1.5-0.5-1.9,0.1c-0.5,0.5-0.5,1.5,0.1,1.9
		c4.5,4.2,7.7,7.3,7.7,7.3c0.3,0.3,0.6,0.4,0.9,0.4c0.4,0,0.6-0.1,0.9-0.4c0.2-0.2,22-20.7,28.9-27.7c3.1-3.1,4.8-7.3,4.8-11.8
		c0-5.3-2.5-10.1-6.4-13.3L69.3,7v4.8c0,0.7,0.6,1.4,1.4,1.4s1.4-0.6,1.4-1.4V3.7C72,2.9,71.4,2.3,70.6,2.3z"/>
	<path d="M56,34.4c0.3,0.3,0.6,0.4,0.9,0.4c0.4,0,0.7-0.2,1-0.5c4.3-4.4,3.8-8.6,3.2-10.7c-0.9-3-3.6-5.7-6.1-6.2
		c-0.7-0.2-1.5,0.4-1.6,1.1c-0.2,0.7,0.4,1.5,1.1,1.6c1.5,0.3,3.4,2,4.1,4.3c0.5,1.8,0.5,4.7-2.6,7.9C55.4,32.9,55.4,33.8,56,34.4z"
		/>
</g>
</svg>
