<?xml version="1.0" encoding="utf-8"?>
<!-- Generator: Adobe Illustrator 21.0.0, SVG Export Plug-In . SVG Version: 6.00 Build 0)  -->
<svg version="1.1" id="Слой_1" xmlns="http://www.w3.org/2000/svg" xmlns:xlink="http://www.w3.org/1999/xlink" x="0px" y="0px"
	 viewBox="0 0 69.7 36.2" style="enable-background:new 0 0 69.7 36.2;" xml:space="preserve">
<style type="text/css">
	.st0{fill:#FF5B51;}
</style>
<g>
	<path class="st0" d="M7.7,15.2H7.1c-0.1,0-0.2,0.1-0.2,0.2c-0.6,1.9-1.6,4.3-2.3,5.8c-0.7-1.6-1.6-3.9-2.3-5.9
		c0-0.1-0.1-0.2-0.2-0.2H1.6c-0.1,0-0.2,0.1-0.1,0.2c0.8,2.3,1.9,5.1,2.7,6.7c0,0.1,0.2,0.1,0.2,0.1h0.4C4.9,22.1,5,22,5.1,22
		c0.8-1.6,1.9-4.4,2.7-6.7C7.8,15.3,7.8,15.2,7.7,15.2z"/>
	<path class="st0" d="M12.3,15.2h-0.4c-0.1,0-0.2,0.1-0.2,0.1c-1.4,2.5-2.3,5.1-2.8,6.7c0,0.1,0,0.2,0.1,0.2h0.5
		c0.1,0,0.2-0.1,0.2-0.2c0.1-0.4,0.3-0.8,0.4-1.3H14c0.2,0.5,0.3,0.9,0.4,1.3c0,0.1,0.1,0.2,0.2,0.2h0.5c0.1,0,0.2-0.1,0.1-0.2
		c-0.5-1.6-1.5-4.2-2.8-6.7C12.5,15.2,12.4,15.2,12.3,15.2z M10.5,20c0.4-1.1,1-2.4,1.6-3.7c0.7,1.3,1.2,2.6,1.6,3.7H10.5z"/>
	<path class="st0" d="M22.4,22v-0.4c0-0.1-0.1-0.2-0.2-0.2h-3.5v-6.1c0-0.1-0.1-0.2-0.2-0.2H18c-0.1,0-0.2,0.1-0.2,0.2V22
		c0,0.1,0.1,0.2,0.2,0.2h4.2C22.4,22.2,22.4,22.1,22.4,22z"/>
	<path class="st0" d="M25.1,22.2h4.4c0.1,0,0.2-0.1,0.2-0.2v-0.4c0-0.1-0.1-0.2-0.2-0.2h-3.7v-2.1h2.9c0.1,0,0.2-0.1,0.2-0.2v-0.4
		c0-0.1-0.1-0.2-0.2-0.2h-2.9V16h3.5c0.1,0,0.2-0.1,0.2-0.2v-0.5c0-0.1-0.1-0.2-0.2-0.2h-4.2c-0.1,0-0.2,0.1-0.2,0.2V22
		C24.9,22.1,25,22.2,25.1,22.2z"/>
	<path class="st0" d="M37.8,15.2c-0.1,0-0.2,0.1-0.2,0.2v5.4l-4-5.4c-0.1-0.1-0.2-0.1-0.3-0.1h-0.5c-0.1,0-0.2,0.1-0.2,0.2v6.7
		c0,0.1,0.1,0.2,0.2,0.2h0.5c0.1,0,0.2-0.1,0.2-0.2v-5.4l4,5.4c0,0.1,0.2,0.1,0.3,0.1h0.5c0.1,0,0.2-0.1,0.2-0.2v-6.8
		c0-0.1-0.1-0.2-0.2-0.2h-0.5V15.2z"/>
	<path class="st0" d="M46.4,15.8v-0.5c0-0.1-0.1-0.2-0.2-0.2H41c-0.1,0-0.2,0.1-0.2,0.2v0.4c0,0.1,0.1,0.2,0.2,0.2h2.2V22
		c0,0.1,0.1,0.2,0.2,0.2h0.5c0.1,0,0.2-0.1,0.2-0.2v-6.1L46.4,15.8C46.3,15.9,46.4,15.9,46.4,15.8z"/>
	<path class="st0" d="M49.9,15.2h-0.5c-0.1,0-0.2,0.1-0.2,0.2v6.7c0,0.1,0.1,0.2,0.2,0.2h0.5c0.1,0,0.2-0.1,0.2-0.2v-6.8
		C50.1,15.3,50,15.2,49.9,15.2z"/>
	<path class="st0" d="M59.7,15.2h-0.5c-0.1,0-0.2,0.1-0.2,0.1v5.4l-4-5.4c-0.1-0.1-0.2-0.1-0.3-0.1h-0.5c-0.1,0-0.2,0.1-0.2,0.1V22
		c0,0.1,0.1,0.2,0.2,0.2h0.5c0.1,0,0.2-0.1,0.2-0.2v-5.4l4,5.4c0,0.1,0.2,0.1,0.3,0.1h0.5c0.1,0,0.2-0.1,0.2-0.2v-6.6
		C59.9,15.3,59.8,15.2,59.7,15.2z"/>
	<path class="st0" d="M65.8,15.3c0-0.1-0.1-0.1-0.2-0.1h-0.4c-0.1,0-0.2,0.1-0.2,0.1c-1.4,2.5-2.3,5.1-2.8,6.7c0,0.1,0,0.2,0.1,0.2
		h0.5c0.1,0,0.2-0.1,0.2-0.2c0.1-0.4,0.3-0.8,0.4-1.3h3.8c0.2,0.5,0.3,0.9,0.4,1.3c0,0.1,0.1,0.2,0.2,0.2h0.5c0.1,0,0.2-0.1,0.1-0.2
		C68.2,20.4,67.2,17.8,65.8,15.3z M63.8,20c0.4-1.1,1-2.4,1.6-3.7c0.7,1.3,1.2,2.6,1.6,3.7H63.8z"/>
	<path class="st0" d="M23.6,27.2h-2.5L21,27.3V34c0,0.1,0.1,0.2,0.2,0.2h2.5c2.2,0,3.6-1.5,3.6-3.5C27.3,28.7,25.8,27.2,23.6,27.2z
		 M23.6,33.4h-1.8v-5.5h1.8c1.7,0,2.7,1.2,2.7,2.7C26.3,32.1,25.3,33.4,23.6,33.4z"/>
	<path class="st0" d="M32.4,27.2H32c-0.1,0-0.2,0.1-0.2,0.1c-1.4,2.5-2.3,5.1-2.8,6.7c0,0.1,0,0.2,0.1,0.2h0.5
		c0.1,0,0.2-0.1,0.2-0.2c0.1-0.4,0.3-0.8,0.4-1.3H34c0.2,0.5,0.3,0.9,0.4,1.3c0,0.1,0.1,0.2,0.2,0.2h0.5c0.1,0,0.2-0.1,0.1-0.2
		c-0.2-1.6-1.2-4.2-2.6-6.7C32.6,27.2,32.5,27.2,32.4,27.2z M30.6,32c0.4-1.1,1-2.4,1.6-3.7c0.7,1.3,1.2,2.6,1.6,3.7H30.6z"/>
	<path class="st0" d="M41.7,27.2h-5.2c-0.1,0-0.2,0.1-0.2,0.2v0.4c0,0.1,0.1,0.2,0.2,0.2h2.2v6.1c0,0.1,0.1,0.2,0.2,0.2h0.5
		c0.1,0,0.2-0.1,0.2-0.2V28h2.2c0.1,0,0.2-0.1,0.2-0.2v-0.5C41.9,27.3,41.8,27.2,41.7,27.2z"/>
	<path class="st0" d="M49,33.4h-3.7v-2.1h2.9c0.1,0,0.2-0.1,0.2-0.2v-0.4c0-0.1-0.1-0.2-0.2-0.2h-2.9V28h3.5c0.1,0,0.2-0.1,0.2-0.2
		v-0.5c0-0.1-0.1-0.2-0.2-0.2h-4.2c-0.1,0-0.2,0.1-0.2,0.2V34c0,0.1,0.1,0.2,0.2,0.2H49c0.1,0,0.2-0.1,0.2-0.2v-0.4
		C49.2,33.5,49.1,33.4,49,33.4z"/>
	<path class="st0" d="M35,9.6c3.5-3.5,4.3-3.8,4.8-4.9C40.1,3.9,40,3,39.5,2.3c-0.9-1-1.9-1-2.5-1c-1.3,0-2,1.3-2,1.3
		s-0.7-1.3-2-1.3c-0.6,0-1.6,0-2.5,1c-0.6,0.6-0.7,1.6-0.3,2.4C30.7,5.8,31.5,6,35,9.6z M31.1,2.8C31.8,2,32.5,2,33,2
		c0.8,0,1.3,0.9,1.3,0.9L35,4.3l0.7-1.4c0,0,0.5-0.9,1.3-0.9c0.6,0,1.2,0,1.9,0.8c0.4,0.4,0.4,1,0.2,1.6c-0.2,0.5-0.5,0.7-1.5,1.6
		C37,6.6,36.1,7.3,35,8.5c-1.2-1.2-2-1.9-2.6-2.5c-1-0.9-1.3-1.2-1.5-1.6C30.7,3.8,30.7,3.2,31.1,2.8z"/>
</g>
</svg>
