<?xml version="1.0" encoding="utf-8"?>
<!-- Generator: Adobe Illustrator 21.0.0, SVG Export Plug-In . SVG Version: 6.00 Build 0)  -->
<svg version="1.1" id="Слой_1" xmlns="http://www.w3.org/2000/svg" xmlns:xlink="http://www.w3.org/1999/xlink" x="0px" y="0px"
	 viewBox="0 0 320 800" style="enable-background:new 0 0 320 800;" xml:space="preserve">
<style type="text/css">
	.st0{fill:#FFFFFF;}
</style>
<path d="M223.7,391.3c-0.6-0.8-1-1.3-1.2-1.9c-0.1-0.1,0.4-0.5,0.6-0.8c0.5,0.4,1,0.8,1.3,1.3C224.6,390.1,224.1,390.6,223.7,391.3z
	"/>
<path class="st0" d="M271,308c-0.5-14.5-1.2-29-3.3-43.4c-2.5-16.7-4.4-33.6-6.1-50.4c-0.6-5.5,0.3-11.2,0.5-16.8
	c0-1,0.3-2.1,0.3-3.1c0.5-12.8-0.5-25.6-4-38c-0.5-1.7-1.9-3.5-3.3-4.5c-4.3-2.9-8.7-5.6-13.2-8c-5.9-3.1-12.5-5.2-17.7-9.1
	c-6.4-4.7-11.7-10.9-17.5-16.5c-3.3-3.2-4.7-7-4.7-11.6c0-4.7-0.6-9.3,1.1-14c1.5-4.2,2-8.7,2.7-13.1c0,0,0-0.1,0-0.2l3.3-2.6
	c0.1-0.1,0.2-0.2,0.3-0.4l2.5-3.3c0.2-0.2,0.3-0.4,0.3-0.7c0.7-2.5,4.3-16.5,3.5-19.6c-0.3-1.2-0.7-2-1.1-2.6
	c-0.3-0.4-0.4-1-0.3-1.5c0.6-3.6,1.3-6.8,1.5-7.8c0.3-1.6,0.8-3.2,0.8-4.8c0.2-6,2.4-12.5-2.2-17.6c-3.9-4.4-8.4-8.5-13-12.1
	c-2.4-1.9-5.6-3.2-8.7-3.8c-11.1-2.4-22-1.3-32.9,1.5c-15.4,4-24.3,19.9-19.9,35.2c0.7,2.3,1.4,4.7,2,7c0.4,1.5,1.2,3.3,0.7,4.7
	c-2.2,7.3,1.5,14.1,1.7,21.1c0,0.5,0.8,1,1.1,1.6c0.9,1.8,2.4,3.5,2.4,5.3c0.2,6.4,1.9,12.4,3.9,18.4c0.9,2.7,1.5,6-1.5,8.2
	c-3.4,2.5-6.9,4.9-10.5,7c-8.7,5.2-18.4,7.6-28,10.2c-7.1,1.9-14.1,4-21.2,5.9c-2.5,0.7-4.6,3.3-7.6,1.3c-0.4-0.2-2.5,1.2-2.9,2.2
	c-1.6,4.9-3,9.9-4.3,14.9c-3.1,12.1-6.2,24.3-9.1,36.4c-2.6,11.2-5.5,22.4-7.4,33.7c-3.3,19.6-5.7,39.4-8.9,59.1
	c-1.9,11.6-0.5,22.6,3.6,33.5c3.4,9.1,6.7,18.4,8.9,27.9c4,16.9,7.1,34,10.9,50.9c0.9,3.9,1.4,8.6,6.2,10.3c0,0,0,0,0,0
	c0.9,0.5,1.9,1.1,3,1.7c0.6,0.4,1,1,1,1.7c0,2.1,0.1,4.5,0,6.8c-0.1,2.4,0.7,3.8,3.3,4.3c4.2,0.8,7.5,2.7,8.2,7.6
	c0.3,2.4,1.6,4.7,2.5,7.1c1.5,4.1,4.1,8.1,4.3,12.2c1.1,20,1.7,40.1,2.2,60.1c0.2,8.2-0.8,16.3-0.9,24.5c0,3,0.2,6.5,1.5,9.1
	c2.2,4.2,2.6,8,1.7,12.5c-2.7,14.6-3.2,29.4-2.6,44.3c1,21.6,1.6,43.3,2,65c0.2,12.9-0.1,25.8-0.4,38.7c-0.1,4.5-1.4,8.9-1.3,13.3
	c0.3,11.4,3.3,22.2,7.4,32.8c1.5,3.9,4.1,7.7,2.4,12.2c-0.3,0.8-0.7,1.7-1,2.5c-3.1,3.9-6.9,8.7-11.5,14.5
	c-13.1,16.8-3.9,27.3-3.9,27.3s3.6,1.8,14.7,2.2c10.3,0.3,20.1,0.6,30.1-9c4.3-4.1,1.8-10.1,1.9-16.7c1.2-1.3,2.4-2.6,3.7-3.9
	c3.3-3.4,5.9-6.9,7.6-10.5c0.2-0.4,0.2-0.8,0.2-1.2c-1-7.2-1.7-14.4-0.9-21.6c0-0.2-0.1-0.4-0.1-0.6c-0.2-0.5,0-1.2,0.1-1.8
	c0.5-2.8,1.3-5.5,1.6-8.3c0.1-0.8,1-2.6,1.5-5.4c0-0.1,0-0.2,0-0.3c0.2-6.7,1.5-13,1.2-19.4c-0.7-15.1-2-30.1-2.6-45.2
	c-0.7-18-1.1-35.9-1.4-53.9c-0.1-3.9,0.6-7.8,1.2-11.6c0.5-3.1,1.8-6.2,1.8-9.2c-0.1-6.6-1.4-13.3,2-19.5c0.5-0.9,0.4-2,0.5-3.1
	c0.3-7.6,0.7-15.3,0.8-22.9c0-0.1,0-0.2,0-0.3c0.8-3.6,1.5-14.2,1.9-17.6c2.5-24.1,4.9-48.1,7.4-72.2c0.1-1.2,0.7-2.4,1.1-3.6
	c0.4,0,0.7,0.1,1.1,0.1c0.6,7.5,1.3,15,1.9,22.6c0.9,10.7,1.8,21.4,2.9,32c1.3,12.9,3.1,25.8,4.4,38.8c0.9,9.2,1.2,18.4,2.4,27.5
	c0.5,3.8,0.7,7.2-0.6,10.8c-0.6,1.6-0.2,3.6,0,5.3c0.3,2.3,1.2,4.5,1.1,6.7c-0.3,5.7-1.4,11.5-1.4,17.2c0.1,15.8,0.8,31.6,0.7,47.4
	c-0.1,12.9-0.5,25.8-1.5,38.6c-0.5,5.7-2.4,11.2-0.7,17c1.1,3.7,2.2,7.6,2.6,11.4c0.4,3.5,0,7.1-0.1,10.6c-0.1,2.5-0.8,5-0.4,7.4
	c1.1,5.9,2.1,11.7,1,17.8c-0.6,3.6-0.8,7.3-1.1,11c-0.2,2.6,0.7,4.4,3.5,5c5.7,1.2,5.6,1.8,11.4,2.7c5,0.8,13.8,4,15.2,9
	c0.9,3.2,9.7,6.3,12.5,8.9c0.3,0.3,0.7,0.4,1.1,0.5c17.4,2,28.7,0.9,29.8-7.8c0.1-2.6,0.2-5.3-0.1-7.9c-0.2-1.9-0.9-4.1-2.2-5.4
	c-6.4-6.5-13.2-12.6-19.7-19c-3.6-3.5-7-7.2-10.2-11c-0.6-0.7-0.4-2.8,0.3-3.6c2.9-3.6,6.1-7,9.2-10.5c1.9-2.2,1.5-4.6,1-7.4
	c-0.7-3.5-0.6-7.2-0.2-10.8c0.3-2.7,2.1-5.2,2.2-7.9c0.5-11.5,1.2-42.3,0.9-44c-0.5-3.3-0.1-16.4,0-18.1c1-13.4,2.1-26.9,2.8-40.4
	c0.3-5.9,0.3-12-0.7-17.8c-1-6.5-2.4-12.9-1.2-19.5c0.5-2.6,1.5-5.3,0.9-7.7c-1.8-7.3-1.2-14.6-1.1-22c0.2-16.3,0-32.5,0-48.8
	c0-7.9,3-27.1,2.8-25.7c3.7-0.6,2.9-15.2,6.8-14.1c0.2-1.6,6.2,3.6,5.9,3.8c0,0,0,0,0,0c-1.3-1.1-3.3-0.2-3.3,1.6c0,0.3,0,0.7-0.1,1
	c-0.8,7.4-2.8,14.3-7.4,20.4c-0.4,0.5-0.9,1.3-0.8,1.9c0.1,1.3,0.2,2.8,1,3.6c0.5,0.5,2.3,0.1,3.3-0.3c1.1-0.5,2.1-1.3,3.1-2.2
	c12-10.2,17.8-23.4,17.8-39c0-0.5-0.1-1.1-0.3-1.6c-0.1-0.3-0.2-0.7-0.1-1.1c0.8-4.3,1.8-10,1.8-12.2c0.1-9.3,0.3-18.7,0.6-28
	c0.6-19.4,1.5-38.7,1.7-58.1C273.1,323.1,271.3,315.6,271,308z M96.1,310.2c-0.2,2.2-3.4,2.5-4,0.3c-1-3.6-1.9-7-2.6-10.6
	c-0.5-2.3,0.4-4.9,0.8-7.4c1.5-9.1,3-18.1,4.5-27.2c0.2-1.3,0.7-2.6,1.2-4.5C97.7,277.5,97.8,293.6,96.1,310.2z M238.1,342.9
	c-2-17.5-7.8-34.7-6.5-52.3c0.2-2.4,3.7-2.5,4-0.1c0.8,6.4,1.6,12.8,2.1,19.2c0.8,10.5,0.7,21.1,1,31.6
	C238.7,341.8,238.5,342.3,238.1,342.9z"/>
</svg>
