<?xml version="1.0" encoding="utf-8"?>
<!-- Generator: Adobe Illustrator 21.0.0, SVG Export Plug-In . SVG Version: 6.00 Build 0)  -->
<svg version="1.1" id="Capa_1" xmlns="http://www.w3.org/2000/svg" xmlns:xlink="http://www.w3.org/1999/xlink" x="0px" y="0px"
	 viewBox="0 0 34 34" style="enable-background:new 0 0 34 34;" xml:space="preserve">
<g>
	<path d="M32.8,17.5H1.2c-0.3,0-0.5-0.2-0.5-0.5s0.2-0.5,0.5-0.5h31.6c0.3,0,0.5,0.2,0.5,0.5S33.1,17.5,32.8,17.5z"/>
	<path d="M20.3,30c-0.1,0-0.3,0-0.4-0.1c-0.2-0.2-0.2-0.5,0-0.7L32.1,17L19.9,4.8c-0.2-0.2-0.2-0.5,0-0.7c0.2-0.2,0.5-0.2,0.7,0
		l12.5,12.5c0.1,0.1,0.1,0.2,0.1,0.4s-0.1,0.3-0.1,0.4L20.6,29.9C20.5,30,20.4,30,20.3,30z"/>
</g>
</svg>
