<?xml version="1.0" encoding="utf-8"?>
<!-- Generator: Adobe Illustrator 23.0.6, SVG Export Plug-In . SVG Version: 6.00 Build 0)  -->
<svg version="1.1" id="Layer_1" xmlns="http://www.w3.org/2000/svg" xmlns:xlink="http://www.w3.org/1999/xlink" x="0px" y="0px"
	 viewBox="0 0 72 72" style="enable-background:new 0 0 72 72;" xml:space="preserve">
<g>
	<path d="M66.5,28.7H52.9V17.2c0-9.5-7.6-17.1-16.9-17.1S19.1,7.8,19.1,17.2v3.5c0,0.8,0.7,1.4,1.4,1.4c0.8,0,1.4-0.7,1.4-1.4v-3.5
		c0-7.9,6.3-14.3,14.1-14.3s14.1,6.4,14.1,14.3v11.5H5.5c-0.8,0-1.4,0.7-1.4,1.4v40.4c0,0.8,0.7,1.4,1.4,1.4h61
		c0.8,0,1.4-0.7,1.4-1.4V30.1C67.9,29.3,67.3,28.7,66.5,28.7z M65.1,69.1H6.9V31.5h58.2V69.1z"/>
	<path d="M42,39.6L42,39.6c-2.4,0-4.6,1.1-6,2.9c-1.4-1.8-3.6-2.9-6-2.9l0,0c-2.1,0-3.9,0.8-5.4,2.3c-1.4,1.4-2.2,3.3-2.2,5.3
		c0,2,0.8,3.8,2,5.1c2.5,2.6,10.3,10.1,10.7,10.5C35.3,63,35.7,63,36,63c0.4,0,0.8-0.1,0.9-0.4c0.3-0.3,8.1-7.8,10.6-10.4
		c1.3-1.3,2-3.1,2-5.1C49.6,42.9,46.2,39.6,42,39.6z M45.6,50.2c-2,2.1-7.3,7.3-9.6,9.5c-2.3-2.2-7.6-7.4-9.6-9.5
		c-0.8-0.8-1.2-1.9-1.2-3.1c0-1.2,0.5-2.4,1.4-3.3c0.9-0.9,2.2-1.4,3.4-1.4l0,0c2.2,0,4,1.4,4.6,3.5c0.2,0.7,0.8,1,1.3,1l0,0
		c0.7,0,1.2-0.5,1.3-1c0.6-2.1,2.4-3.5,4.6-3.5l0,0c2.6,0,4.8,2.2,4.8,4.7C46.8,48.3,46.3,49.4,45.6,50.2z"/>
</g>
</svg>
