<?xml version="1.0" encoding="utf-8"?>
<!-- Generator: Adobe Illustrator 23.0.6, SVG Export Plug-In . SVG Version: 6.00 Build 0)  -->
<svg version="1.1" id="Layer_1" xmlns="http://www.w3.org/2000/svg" xmlns:xlink="http://www.w3.org/1999/xlink" x="0px" y="0px"
	 viewBox="0 0 100.3 100.3" style="enable-background:new 0 0 100.3 100.3;" xml:space="preserve">
<g>
	<path d="M82.5,39.9H68V27.7c0-10.1-8.1-18.2-18-18.2s-18,8.2-18,18.2v3.7c0,0.8,0.7,1.5,1.5,1.5s1.5-0.7,1.5-1.5v-3.7
		c0-8.4,6.7-15.2,15-15.2s15,6.8,15,15.2v12.2H17.5c-0.8,0-1.5,0.7-1.5,1.5v43c0,0.8,0.7,1.5,1.5,1.5h65c0.8,0,1.5-0.7,1.5-1.5v-43
		C84,40.6,83.3,39.9,82.5,39.9z M81,82.9H19v-40h62V82.9z"/>
	<path d="M56.4,51.5C56.4,51.5,56.4,51.5,56.4,51.5c-2.6,0-4.9,1.2-6.4,3.1c-1.5-1.9-3.8-3.1-6.4-3.1c0,0,0,0,0,0
		c-2.2,0-4.2,0.8-5.8,2.4c-1.5,1.5-2.3,3.5-2.3,5.6c0,2.1,0.8,4,2.1,5.4c2.7,2.8,11,10.8,11.4,11.2c0.3,0.3,0.7,0.4,1,0.4
		c0.4,0,0.8-0.1,1-0.4c0.3-0.3,8.6-8.3,11.3-11.1c1.4-1.4,2.1-3.3,2.1-5.4C64.5,55.1,60.9,51.5,56.4,51.5z M60.2,62.8
		c-2.1,2.2-7.8,7.8-10.2,10.1c-2.4-2.3-8.1-7.9-10.2-10.1c-0.8-0.9-1.3-2-1.3-3.3c0-1.3,0.5-2.6,1.5-3.5c1-1,2.3-1.5,3.6-1.5
		c0,0,0,0,0,0c2.3,0,4.3,1.5,4.9,3.7c0.2,0.7,0.8,1.1,1.4,1.1c0,0,0,0,0,0c0.7,0,1.3-0.5,1.4-1.1c0.6-2.2,2.6-3.7,4.9-3.7
		c0,0,0,0,0,0c2.8,0,5.1,2.3,5.1,5C61.5,60.8,61,62,60.2,62.8z"/>
</g>
</svg>
