<?xml version="1.0" encoding="utf-8"?>
<!-- Generator: Adobe Illustrator 21.0.0, SVG Export Plug-In . SVG Version: 6.00 Build 0)  -->
<svg version="1.1" id="Слой_1" xmlns="http://www.w3.org/2000/svg" xmlns:xlink="http://www.w3.org/1999/xlink" x="0px" y="0px"
	 viewBox="0 0 512 512" style="enable-background:new 0 0 512 512;" xml:space="preserve">
<g id="_x30_23---Give-Parent-Love">
	<path id="Shape" d="M401.7,0c-37.7,0-73,18.5-94.5,49.5C285.7,18.5,250.4,0,212.7,0c-68,0-110.3,44.4-110.3,115.8
		c0,65.3,34.7,97.3,62.7,123c17.6,16.2,28.3,28.9,132.4,116.1c5.6,4.7,13.9,4.7,19.5,0c103.5-86.6,114.1-99.2,132.4-116.1
		c27.9-25.7,62.7-57.7,62.7-123C512,44.4,469.7,0,401.7,0L401.7,0z M179.2,228.7v-41c0-9.4,7.6-17.1,17.1-17.1h68.3
		c9.4,0,17.1,7.6,17.1,17.1v51.2c0,9.4-7.6,17.1-17.1,17.1v-42.7c0-4.7-3.8-8.5-8.5-8.5c-4.7,0-8.5,3.8-8.5,8.5v76.8
		c-11.9-10.2-23.8-20.6-34.1-29.8v-47c0-4.7-3.8-8.5-8.5-8.5c-4.7,0-8.5,3.8-8.5,8.5v31.5C185.2,234.5,193.3,241.7,179.2,228.7
		L179.2,228.7z M417.7,245.3l-5.1-33.2c-0.4-3.1-2.4-5.8-5.3-6.9c-2.9-1.2-6.2-0.7-8.6,1.3c-2.4,2-3.6,5.1-3,8.2l6.8,44.4
		c-10.7,9.6-23.2,20.4-35.7,31.2l11.6-75.6c0.6-3.1-0.6-6.2-3-8.2c-2.4-2-5.7-2.5-8.6-1.3c-2.9,1.2-4.9,3.8-5.3,6.9l-6.7,44h-7.3
		c-2.5,0-4.9-1.1-6.5-3c-1.6-1.9-2.3-4.4-1.9-6.9l10.2-61.1c1.4-8.2,8.5-14.3,16.8-14.3h42c8.4,0,15.5,6,16.8,14.3l7.7,46.2
		C422,241,425.6,237.8,417.7,245.3L417.7,245.3z M447.6,217.1l-5.8-35c-2.7-16.5-17-28.6-33.7-28.5h-42c-16.7,0-31,12.1-33.7,28.6
		l-10.2,61.1c-1.2,7.4,0.9,15,5.7,20.7c4.9,5.7,12,9.1,19.5,9.1h4.7l-5.2,34.1c-16.5,14.1-31.3,26.5-39.8,33.5
		c-8.9-7.5-25-20.9-42.7-36v-31.7c18.9,0,34.1-15.3,34.1-34.1v-51.2c0-18.9-15.3-34.1-34.1-34.1h-68.3c-18.9,0-34.1,15.3-34.1,34.1
		v24.9c-27.7-24.5-43.3-59.8-42.7-96.8c0-61.8,34.9-98.8,93.2-98.8c34.6,0.2,66.5,18.4,84.4,48c2.3,3.4,6.1,5.4,10.1,5.4
		s7.9-2,10.1-5.4c17.8-29.6,49.8-47.8,84.4-48c58.4,0,93.2,36.9,93.2,98.8C494.9,166.7,471.5,194.4,447.6,217.1L447.6,217.1z"/>
	<path id="Shape_1_" d="M17.1,494.9H113c6.2,0.1,12.1,2.3,16.8,6.3c9.4,7.3,21.1,11.2,33,10.8h182.9c10.1,0,20-2.7,28.6-8l125-75.3
		c6.3-3.8,10.7-10,12.2-17.2c1.5-7.2,0-14.7-4.2-20.7c-6.8-9.8-19.3-13.9-30.6-10.1l-128.3,44.5c2.3-12.3-1-25-9-34.6
		c-8-9.6-19.8-15.3-32.3-15.4h-35.3c-12.1,0-23.7-4.2-33-11.9c-18.6-15.4-33.1-13.6-59.5-13.6c-24.6,0.7-47.3,13.5-60.8,34.1H17.1
		C7.6,384,0,391.6,0,401.1v76.8C0,487.3,7.6,494.9,17.1,494.9L17.1,494.9z M17.1,401.1H111c0,4.1,3,7.5,7,8.3c4,0.8,8-1.4,9.5-5.2
		c1-2.6,2.2-5.2,3.6-7.7c9.8-17.6,28.1-28.9,48.2-29.6c26.9-0.1,35.3-1.4,48.6,9.6c12.4,10.2,27.9,15.8,43.9,15.9h35.3
		c8.3,0,15.9,4.2,20.5,11c4.6,6.9,5.4,15.6,2.3,23.2c-64.1,0-63.2-3.3-95.7,18.5c-3.9,2.6-5,7.9-2.3,11.8c2.6,3.9,7.9,5,11.8,2.3
		c12.8-8.6,21.2-15.6,38.5-15.6c65.1,0,63.4,0.6,70.5-1.8L482,397c4.6-1.6,9.7,0.5,11.8,4.9s0.6,9.7-3.5,12.3l-124.9,75.3
		c-6,3.6-12.8,5.5-19.8,5.5H162.7c-8,0.3-15.8-2.1-22.2-6.9c-7.7-6.5-17.5-10.1-27.6-10.1H17.1L17.1,401.1z"/>
	<path id="Shape_2_" d="M230.4,68.3c-18.9,0-34.1,15.3-34.1,34.1s15.3,34.1,34.1,34.1s34.1-15.3,34.1-34.1c0-9.1-3.6-17.7-10-24.1
		S239.5,68.3,230.4,68.3z M230.4,119.5c-9.4,0-17.1-7.6-17.1-17.1s7.6-17.1,17.1-17.1c9.4,0,17.1,7.6,17.1,17.1
		S239.8,119.5,230.4,119.5z"/>
	<path id="Shape_3_" d="M387.1,68.3c-18.9,0-34.1,15.3-34.1,34.1s15.3,34.1,34.1,34.1c18.9,0,34.1-15.3,34.1-34.1
		c0-9.1-3.6-17.7-10-24.1C404.8,71.9,396.1,68.3,387.1,68.3z M387.1,119.5c-9.4,0-17.1-7.6-17.1-17.1s7.6-17.1,17.1-17.1
		s17.1,7.6,17.1,17.1S396.5,119.5,387.1,119.5z"/>
</g>
</svg>
