<?xml version="1.0" encoding="utf-8"?>
<!-- Generator: Adobe Illustrator 21.0.0, SVG Export Plug-In . SVG Version: 6.00 Build 0)  -->
<svg version="1.1" id="Слой_1" xmlns="http://www.w3.org/2000/svg" xmlns:xlink="http://www.w3.org/1999/xlink" x="0px" y="0px"
	 viewBox="0 0 512 512" style="enable-background:new 0 0 512 512;" xml:space="preserve">
<title>002 - Love</title>
<desc>Created with Sketch.</desc>
<g id="Page-1">
	<g id="_x30_02---Love" transform="translate(-1.000000, -1.000000)">
		<path id="Shape" d="M17.8,320.1c2.8,1.9,5.8,3.7,8.9,5.1c3.7,1.9,9.9,5,10.3,7.3c0.5,2.9,0.2,5.9-1,8.6c-1.3,2.7-2.6,5.1-3.8,7.1
			c-3.1,5.5-8.4,14.8-0.5,21.2c1.8,1.7,5,4.2,7.9,6.4c-2.1,3.7-3.1,8-2.8,12.3c0.5,3.4,2.3,6.4,5.1,8.4c1.9,1.3,3.9,2.5,5.9,3.6
			c5,2.9,7,4.2,7.7,6.9c0.5,3.4,0.2,6.9-0.9,10.2c-0.5,2.3-1,4.6-1.3,6.8c-0.8,7.8,0.1,15.6,2.8,23c3.8,13.6,16.1,23,30.2,23.3
			c2.4,0,4.7-0.3,7-0.7c24.4-5.8,48.4-13,71.9-21.5c19.2,11.3,31.4,45.6,34.5,58.5c0.9,3.8,4.4,6.5,8.3,6.5l214.2-0.6
			c2.7,0,5.3-1.3,6.9-3.5c1.6-2.2,2.1-5,1.3-7.6c-2.1-5.8-5-11.2-8.7-16.2c-2-2.9-3.9-6-5.5-9.2c-3.9-7.8-7.1-16-9.6-24.3
			c-4.9-16.5-8.2-33.4-10.1-50.5c-3-25.5,0.9-51.4,11.2-74.9c6.3-13.1,14.1-25.3,23.2-36.6c5.1-6.9,10.4-14.1,15.2-21.6
			c13.5-20.9,20.8-45.2,20.9-70.1c0.1-2.9,0-5.8,0-8.9c6.7-7.8,12.6-16.3,17.6-25.3c32.4-56.4,31.7-114-1.8-143.2
			c-19.5-16.1-45.1-22.8-70-18.3c-23.2,4-43.9,16.8-57.8,35.8c-12.9-17.5-31.6-29.8-52.7-34.7c-0.2,0-0.4-0.2-0.6-0.2
			c-0.2,0-0.5-0.1-0.9-0.1c-1.2-0.3-2.5-0.6-3.7-0.9c-6.4-1.1-13-1.4-19.5-1.1C272.7,1,267.4,1,261.4,1.3
			c-27.8,1.9-55.3,5.9-82.5,11.8c-38.5,7.7-66.4,21.2-85.5,41.3c-15.1,16.1-26.7,35.1-34.2,55.8c-3.1,8.9-5.6,18-7.6,27.2l-0.9,3.6
			c-1.8,6.7-4.3,13.2-7.3,19.5c-1.7,3.9-3.5,7.8-5,11.8c-1.9,4.5-2.7,9.4-2.2,14.3c1.7,7.6,6.1,14.4,12.4,19.1
			c4.2,3.8,6.9,6.5,6.9,8.9c-0.3,1.3-0.8,2.5-1.5,3.7c-10.2,21.5-22.7,41.9-37.4,60.7c-6.2,7.5-12.6,16.3-11.3,25.1
			C7.2,310.9,11.7,316.6,17.8,320.1z M347.7,57.7c1.6,2.5,4.4,4,7.4,4s5.8-1.5,7.4-4c11-20.3,30.6-34.6,53.3-38.7
			c19.8-3.6,40.2,1.7,55.9,14.3c27.2,23.7,26.5,72.7-1.9,122C447.1,197.7,385,238,355.1,255.7c-5.3-3.1-10.5-6.5-15.8-9.9
			c4.2-4.7,7.9-9.9,11-15.4c18.3-31.8,17.6-64.5-1.8-81.4c-11.3-9.4-26.1-13.3-40.6-10.6c-11.7,2-22.3,7.9-30.2,16.7
			c-11.5-13-28.8-19.4-46.1-16.9c-19.4-43.3-17-83.9,6.8-104.7c11.4-9.4,25.5-14.7,40.2-15.2c6.4,0.2,12.8,0.8,19.2,1.7
			C319.2,24.8,337.3,38.6,347.7,57.7z M238.9,154.6c2,0,3.9,0.2,5.8,0.5c11,1.9,20.4,8.8,25.6,18.7c1.5,2.6,4.3,4.3,7.4,4.3
			s5.9-1.6,7.4-4.3c5.2-9.8,14.6-16.7,25.6-18.7c9.4-1.7,19.1,0.7,26.6,6.7c13.1,11.3,12.3,35.4-1.9,60.2
			c-8.2,15.3-29.1,33.6-57.6,50.7c-28.5-17.1-49.4-35.4-57.8-50.9c-14.1-24.6-14.9-48.6-1.8-60C224,157,231.4,154.5,238.9,154.6z
			 M30.2,289.4c15.3-19.7,28.4-40.9,39-63.4c2-3.5,3.1-7.5,3.3-11.5c-0.9-8.6-5.4-16.4-12.5-21.3c-3.4-3.2-6.7-6.2-7.1-8.9
			c0.1-2,0.5-4,1.3-5.9c1.4-3.7,3-7.2,4.6-10.8c3.5-7.2,6.3-14.8,8.4-22.5l0.9-3.6c1.8-8.5,4.1-16.9,7-25.2
			c6.7-18.6,17.1-35.6,30.6-50c16.3-17.3,42-29.5,76.5-36.3c13.4-2.7,28.2-5.5,43.4-7.7c-27.7,25.9-31.6,72.4-10.4,121.1
			c-3,1.6-5.7,3.4-8.3,5.6c-19.4,16.9-20.1,49.6-1.9,81.2c13.8,25.7,48.8,48.5,68.4,59.9c2.6,1.5,5.9,1.5,8.5,0
			c16-9.1,31-19.7,45-31.8c7.9,5.1,15.9,10.1,23.9,14.7c2.6,1.5,5.9,1.5,8.5,0c32.4-18.3,62.6-40.3,90.1-65.3
			c-1.7,18.3-7.8,35.9-17.7,51.3c-4.4,7-9.5,13.9-14.5,20.6c-9.9,12.3-18.3,25.7-25.1,40c-11.6,26.3-15.9,55.2-12.5,83.8
			c2,18.1,5.5,36,10.7,53.5c2.8,9.2,6.3,18.1,10.6,26.7c1.9,3.8,4.2,7.6,6.6,11.1l0.6,0.9l-193.6,0.6c-5.7-20.2-15.9-38.9-30-54.5
			l7.7-2.7c5.7-2,10-3.5,12.2-4.2c36.6-11.6,54.8-28.2,54.3-49.5c-0.1-4.7-4-8.4-8.7-8.3c-4.7,0.1-8.4,4-8.3,8.7
			c0.2,8.8-7,21.6-42.5,32.8c-2.3,0.7-6.8,2.3-12.7,4.4c-6.3,2.2-14.4,5-23.3,8.1h-0.1c-24,8.8-48.5,16.2-73.4,22.2
			c-7.9,1.5-15.6-3.5-17.5-11.4c-1.8-4.9-2.5-10.1-2-15.2c0.2-1.8,0.6-3.6,1-5.4c1.7-5.9,2-12.1,0.7-18.2
			c-2.5-7.8-8.2-14.2-15.8-17.5c-0.6-0.3-1.2-0.7-1.8-1c0.9-1.9,2-3.6,3.3-5.3c1.4-1.8,2.1-4.1,1.8-6.4c-0.3-2.3-1.5-4.4-3.4-5.7
			c-2-1.5-6.9-5.1-10.4-8c0.4-0.7,0.9-1.6,1.3-2.3c1.3-2.4,2.9-5.1,4.4-8.2c2.7-6,3.5-12.6,2.3-19.1c-2-10.4-12-15.5-19.3-19.2
			c-2.5-1.2-4.8-2.5-7-4.1c-1.8-1.2-3.5-2.6-5.1-4.1C22.3,300.5,23.7,297.4,30.2,289.4z"/>
	</g>
</g>
</svg>
