<?xml version="1.0" encoding="utf-8"?>
<!-- Generator: Adobe Illustrator 21.0.0, SVG Export Plug-In . SVG Version: 6.00 Build 0)  -->
<svg version="1.1" id="Слой_1" xmlns="http://www.w3.org/2000/svg" xmlns:xlink="http://www.w3.org/1999/xlink" x="0px" y="0px"
	 viewBox="0 0 320 800" style="enable-background:new 0 0 320 800;" xml:space="preserve">
<style type="text/css">
	.st0{fill:#FF5B51;}
</style>
<path d="M223.8,391.3c-0.6-0.8-1-1.3-1.2-1.9c-0.1-0.1,0.4-0.5,0.6-0.8c0.5,0.4,1,0.8,1.3,1.3C224.6,390.1,224.1,390.6,223.8,391.3z
	"/>
<path class="st0" d="M317.9,779.3c-0.2-1.7-0.8-3.3-0.7-4.8c0.3-9.7-2.4-19-4.6-28.2c-1.6-6.3-2.8-12.4-2.4-19
	c0.1-2.1-0.6-4.3-1.3-6.4c-1.1-3.2-3.2-6.1-3.9-9.4c-2-9.8-3.6-19.6-5.2-29.5c-1.4-8.4-2.6-16.9-4-25.3c-1.4-8.1-3.2-16.2-4.7-24.3
	c-1.9-9.8-3-19.8-5.8-29.4c-3.6-12-8.6-23.6-13-35.4c-2.6-7-5.4-13.8-7.7-20.9c-1.9-5.5-3.3-11.2-4.6-16.8c-1.5-5.8-2.7-11.7-4-17.6
	c-0.3-1.4-4.4-15.1-3-15.5c0.7-1.6,8.5-6.4,7.4-8.4c0.6-1.3,0.8-2.7,0.6-3.9c-0.2-1.5-0.9-3-1.2-4.5c-2.5-12.4-4.8-25-7.4-37.4
	c-2.9-13.8-5.8-27.5-8.7-41.4c-2.6-11.9-5.4-23.9-7.6-35.9c-2.2-12-3.7-24.2-5.4-36.3c-0.3-2.1-0.6-4.1-0.9-6.6
	c2.4,0.3,4.3,0.5,6.2,0.8c7.9,1.3,15.2,0.8,22-4.4c12.1-9.3,23.3-19.5,33.3-31c2.3-2.6,4.7-5.2,5.9-8.4c1-2.6,4.7-10.3,5-12.3
	c0.2-1.1,0-2.3,0.1-3.4c0.1-0.8,0.4-1.7,0.3-2.5c-0.5-2.1-0.9-4.2-1.8-6.1c-4.6-9.8-9.3-19.5-14-29.1c-3.4-6.7-7.2-13.2-10.2-20.1
	c-2.8-6.3-4.2-13.1-6.9-19.5c-3.4-8.1-7.1-16.1-11.2-23.9c-2.5-4.7-5.2-9.6-8.7-13.6c-6.7-7.9-15.7-11.6-26.1-11.2
	c-5.1,0.2-10.2-0.1-14.8-1.7c13.7-8.9,32.9-25.5,5.7-36c-12.2-4.7-19.6-12.1-24.2-19.3c0.2-0.5,0.5-0.9,0.7-1.3
	c1.6-2.4,4.1-4.5,4.7-7.1c1-4.8,1-10,1.1-15c0-1.1-1-2.3-1.5-3.4c-0.4-1-1.1-2-1.3-3c-0.7-5-0.2-10.5-2-15
	c-5.7-14.7-13.2-23-29-24.7c-2.7-0.3-5.5-1.2-8.1-0.6c-8.4,1.9-16.1,5.2-22.3,11.6c-4.9,5.1-7.2,11.6-10.3,17.7
	c-1.6,3.1-2.1,6.2-1,9.6c1,3.1,2.4,6.1,2.8,9.3c0.9,6.5,1.2,13.1,1.9,19.7c0.2,1.8,0.5,3.8,1.3,5.3c1.7,3.8,4,7.3,5.4,11.2
	c1.7,4.7,4.1,8.9,7.6,12.4c3.4,3.6,4.1,9.1,2.2,13.4c-5,11.1-14.8,17-26.8,15.7c-5.1-0.6-10-1-14.8,0.9c-4,1.6-8.5,2.7-11.8,5.2
	c-11.3,8.4-19.6,19.5-28,30.6c-4.4,5.9-8.3,12.4-13.2,18c-10.9,12-22.3,23.7-33.5,35.4c-5.2,5.7-10.5,11.2-11.7,19
	c-1,5.9-0.7,11.7,4,16.2c5.3,4.9,11,9.7,16.7,14.4c11.7,9.7,24.5,17.7,38,24.6c5.8,3,11.5,6,18.3,5.7c3.1-0.1,6.1,0.4,8.4,0.5
	c-2.4,9.3-5,18.3-6.8,27.4c-1.8,9.8-3.7,19.5-6.6,28.9c-3.9,12.6-7.6,25.5-11.1,38.2c-3.5,12.9-6.2,26.1-10,38.9
	c-3.4,11.6-7.7,22.7-11.6,34.1c-0.9,2.7-3.1,5.7-0.2,8.1c7.4,6.4,15.4,11.9,25.1,14.5c6.3,1.8,12.7,3.4,19.1,5.1
	c5.2,1.5,10.4,3.1,15.5,4.7c0.6,0.2,1.4,1.1,1.4,1.8c0.7,6.8,1.3,13.5,1.9,20.3c0.6,6.9,1.2,13.8,1.5,20.6c0.4,8,1,16,0.6,23.9
	c-1,20.1,0.4,40,5.1,59.6c2.9,11.7,5,23.5,7.7,35.2c2.5,10.9,4.8,21.7,7.7,32.5c1.7,6.3,3.9,12.5,2.5,19.2c-0.9,4.4-0.7,8.7,1,12.9
	c1.8,4.5,2.6,8.9,1.3,13.8c-1.8,6.6-2.7,13.5-3.9,20.2c-1,5.2-1.4,10.7-2.9,15.7c-1.2,4.1-1.5,8.1-0.5,12.3c0.8,3.6,3.6,5.1,6.2,5
	c8.1-0.2,16.1-0.4,24.2-1c4.8-0.4,5.8-1.7,5.8-6.6c0.1-14.8-0.1-29.6,0.1-44.4c0.1-6-1.6-11.4-4.3-16.6c-0.8-1.6-0.6-3.7-0.8-5.5
	c-0.3-3,0.4-6.3-0.8-8.8c-4.4-9.3-5.7-19.2-5.4-29.2c0.5-18.8,1.6-37.6,1.8-56.4c0.1-11.5-0.4-23-1.8-34.4
	c-1.7-14.4-2.7-28.6-0.5-43c0.9-5.6,1.6-11.5,1.5-17.1c0-11-0.6-22-1-33c0-0.7,0.1-1.3,0.3-2.3c1.9,0.3,3.6,0.6,5.3,0.8
	c2.6,0.4,5.1,0.7,7.7,1.1c1.4,0.2,3.2-0.3,4.1,0.4c2.6,1.8,5.3,1.7,8.1,1.7c3.5-0.1,7-0.3,10.5-0.4c4.3,0,5-0.6,5.3-5.5
	c4,0.7,8,1.3,11.9,2.1c0.6,0.1,1.3,0.8,1.5,1.4c2.4,8.2,4.8,16.4,6.9,24.6c3.5,13.7,7.5,27.2,15.2,39.3c4.8,7.6,7.5,16.1,9.5,24.8
	c1.8,8,3.9,16,6.4,23.8c1.9,5.6,4.8,10.9,7.3,16.4c7.9,18,15.9,35.8,23.5,54c4.9,11.8,9.9,23.9,9.3,37.2c0,0.7,0.1,1.4,0.3,2
	c1.9,3.9,1.6,7.7,0.7,12.1c-1.5,7.7-1.3,15.6-1.6,23.5c-0.2,5.5-0.1,11.1-0.1,16.7c-0.1,5.3-0.4,10.8-0.2,16.1
	c0.1,1.6,1.4,4,2.6,4.3c5.2,1.4,10.7,3.1,16.2,1c0.8-0.3,2-0.6,3.1-1.3c1.1-0.6,1.8-0.8,4.8-1.1c1.8,0.1,3.2,0,4.3-0.6
	c2.7-1.2,5.6-3.4,5.5-5.8C318.6,786.9,318.2,783.1,317.9,779.3z M110.8,260.8c-0.5,1.9-1.2,3.9-2.6,5c-1.4,1.1-3.7,1.6-5.4,1.3
	c-5.2-0.7-7.3,3.3-10.4,6.1c-4.4,4.3-9.1,8.6-13.8,12.7c-0.5,0.5-2.1,0.5-2.8,0c-7.2-4.9-14.4-10-21.4-15.2
	c-2.4-1.8-4.2-4.4-6.1-6.9c-3.7-4.6-7-9.5-10.7-14.1c-1.3-1.6-1.7-2.9,0-4.5c8-7.9,15.7-16,23.8-23.7c9.1-8.6,18.6-16.9,27.8-25.2
	c2-1.8,4.2-3.6,7.4-2.8c3.1-0.9,4.1,0.8,4.6,3.5c0.6,2.9,1,5.7,1.7,8.6c0.3,1.4,0.8,2.9,1.6,3.9c4.4,5.7,4.8,12.7,6.2,19.5
	c0.2,0.8-0.3,1.8-0.2,2.6c0.1,2.5,0.3,4.9,0.5,7.3c0.3,4.7,0.7,9.5,0.7,14.2C111.9,255.8,111.5,258.4,110.8,260.8z M218.9,278
	c-3.6-1.6-3.6-2-2.9-5.9c0.6-3.4,0.4-6.9,1-10.4c0.9-5.7,2.2-11.5,3.3-17.2c0.2-0.9,0.3-1.8,0.3-2.6c-0.4-15.9,4-30.8,9.3-46.4
	c1.9,1.8,3.6,3.1,4.6,4.7c9.8,14.6,19.6,29.1,29,43.9c3.4,5.2,5.7,11.2,8.5,16.8c1.4,2.8,0.9,5.1-1.1,7.5
	c-4.1,5.1-7.7,10.5-10.8,16.4c-1.9,3.8-5.4,6.7-8.6,9.7c-2.7,2.6-5.6,4.6-8.8,7.2c-1.7-2.5-3.3-4.5-4.6-6.7c-2.2-3.5-4.2-7-6.5-10.6
	c-0.3-0.5-0.9-1.1-1.4-1.3C226.5,281.5,222.8,279.7,218.9,278z"/>
</svg>
